<svg width="180" height="40" viewBox="0 0 180 40" fill="none" xmlns="http://www.w3.org/2000/svg">
<path d="M52.78 30V11.3334H62.0334C63.6245 11.3334 64.8867 11.6134 65.82 12.1734C66.7534 12.7245 67.42 13.4623 67.82 14.3867C68.2289 15.3111 68.4334 16.32 68.4334 17.4134C68.4334 18.0978 68.3045 18.8045 68.0467 19.5334C67.7889 20.2534 67.4111 20.9156 66.9134 21.52C66.4245 22.1156 65.8289 22.5689 65.1267 22.88L68.5934 30H63.8734L60.54 23.5467H56.9934V30H52.78ZM56.9934 19.5734H62.0867C62.5845 19.5734 62.9756 19.4756 63.26 19.28C63.5534 19.0756 63.7578 18.8089 63.8734 18.48C63.9978 18.1511 64.06 17.7956 64.06 17.4134C64.06 17.0578 64.0023 16.72 63.8867 16.4C63.7711 16.08 63.5667 15.8178 63.2734 15.6134C62.9889 15.4089 62.5934 15.3067 62.0867 15.3067H56.9934V19.5734Z" fill="white"/>
<path d="M71.9532 30V12.5867L75.9532 10.7467V17.6267C76.3976 17.1023 76.9309 16.7111 77.5532 16.4534C78.1754 16.1867 78.8865 16.0534 79.6865 16.0534C80.6465 16.0534 81.4776 16.2578 82.1798 16.6667C82.882 17.0667 83.4243 17.6445 83.8065 18.4C84.1887 19.1467 84.3798 20.0356 84.3798 21.0667V30H80.3798V23.04C80.3798 21.8934 80.2198 21.0889 79.8998 20.6267C79.5887 20.1556 79.0465 19.92 78.2732 19.92C77.4643 19.92 76.8732 20.1645 76.4998 20.6534C76.1354 21.1423 75.9532 21.92 75.9532 22.9867V30H71.9532Z" fill="white"/>
<path d="M92.5748 30.32C91.0726 30.32 89.8815 29.9245 89.0015 29.1334C88.1304 28.3334 87.6948 27.2623 87.6948 25.92C87.6948 25.04 87.9259 24.2667 88.3882 23.6C88.8593 22.9334 89.5082 22.4178 90.3348 22.0534C91.1704 21.68 92.1393 21.4934 93.2415 21.4934C93.7926 21.4934 94.3348 21.5378 94.8682 21.6267C95.4104 21.7067 95.8548 21.8223 96.2015 21.9734V21.2C96.2015 20.6223 96.0015 20.1778 95.6015 19.8667C95.2104 19.5467 94.6548 19.3867 93.9348 19.3867C93.2593 19.3867 92.5659 19.5067 91.8548 19.7467C91.1526 19.9867 90.4059 20.3556 89.6148 20.8534L88.3882 17.7867C89.2326 17.2267 90.1615 16.8 91.1748 16.5067C92.197 16.2045 93.2415 16.0534 94.3082 16.0534C96.2726 16.0534 97.7393 16.5023 98.7082 17.4C99.6859 18.2889 100.175 19.6267 100.175 21.4134V30H96.2015V29.0134C95.7926 29.44 95.277 29.7645 94.6548 29.9867C94.0415 30.2089 93.3482 30.32 92.5748 30.32ZM93.6148 26.9867C94.1126 26.9867 94.5793 26.9111 95.0148 26.76C95.4593 26.6 95.8548 26.3734 96.2015 26.08V24.96C95.8726 24.8356 95.5126 24.7423 95.1215 24.68C94.7304 24.6178 94.3259 24.5867 93.9082 24.5867C93.1882 24.5867 92.6237 24.7023 92.2148 24.9334C91.8148 25.1556 91.6148 25.4756 91.6148 25.8934C91.6148 26.24 91.7882 26.5112 92.1348 26.7067C92.4815 26.8934 92.9748 26.9867 93.6148 26.9867Z" fill="white"/>
<path d="M104.229 35.4134V16.3734H108.229V17.28C108.825 16.4623 109.714 16.0534 110.896 16.0534C112.069 16.0534 113.078 16.3423 113.923 16.92C114.767 17.4889 115.416 18.3067 115.869 19.3734C116.323 20.44 116.549 21.7156 116.549 23.2C116.549 24.6134 116.309 25.8534 115.829 26.92C115.349 27.9867 114.678 28.8223 113.816 29.4267C112.963 30.0223 111.971 30.32 110.843 30.32C110.274 30.32 109.767 30.2178 109.323 30.0134C108.887 29.8178 108.523 29.5289 108.229 29.1467V33.6267L104.229 35.4134ZM110.203 26.4534C110.949 26.4534 111.527 26.1689 111.936 25.6C112.345 25.0223 112.549 24.2223 112.549 23.2C112.549 22.1334 112.349 21.32 111.949 20.76C111.549 20.2 110.967 19.92 110.203 19.92C109.767 19.92 109.394 19.9778 109.083 20.0934C108.78 20.2089 108.496 20.4 108.229 20.6667V25.6534C108.309 25.8756 108.536 26.0667 108.909 26.2267C109.291 26.3778 109.723 26.4534 110.203 26.4534Z" fill="white"/>
<path d="M124.658 30.32C123.529 30.32 122.449 30.08 121.418 29.6C120.386 29.12 119.582 28.48 119.004 27.68L121.538 25.5467C121.982 26 122.502 26.3689 123.098 26.6534C123.693 26.9289 124.258 27.0667 124.791 27.0667C125.378 27.0667 125.826 26.9823 126.138 26.8134C126.449 26.6356 126.604 26.3823 126.604 26.0534C126.604 25.8578 126.529 25.68 126.378 25.52C126.226 25.36 125.938 25.1867 125.511 25C125.093 24.8045 124.48 24.56 123.671 24.2667C122.115 23.7067 121.022 23.1023 120.391 22.4534C119.769 21.8045 119.458 20.9689 119.458 19.9467C119.458 18.7823 119.929 17.8445 120.871 17.1334C121.822 16.4134 123.058 16.0534 124.578 16.0534C125.609 16.0534 126.564 16.2489 127.444 16.64C128.324 17.0311 129.084 17.6 129.724 18.3467L127.164 20.4534C126.373 19.6889 125.484 19.3067 124.498 19.3067C124.062 19.3067 123.702 19.3867 123.418 19.5467C123.142 19.6978 123.004 19.8934 123.004 20.1334C123.004 20.3823 123.173 20.6089 123.511 20.8134C123.858 21.0178 124.515 21.2623 125.484 21.5467C126.569 21.8578 127.453 22.2223 128.138 22.64C128.831 23.0578 129.338 23.5467 129.658 24.1067C129.986 24.6667 130.151 25.3156 130.151 26.0534C130.151 27.3867 129.662 28.4312 128.684 29.1867C127.706 29.9423 126.364 30.32 124.658 30.32Z" fill="white"/>
<path d="M139.19 30.32C137.234 30.32 135.692 29.6889 134.563 28.4267C133.434 27.1556 132.87 25.4134 132.87 23.2C132.87 21.7423 133.128 20.48 133.643 19.4134C134.159 18.3378 134.888 17.5111 135.83 16.9334C136.781 16.3467 137.901 16.0534 139.19 16.0534C140.47 16.0534 141.576 16.3467 142.51 16.9334C143.452 17.5111 144.176 18.3334 144.683 19.4C145.199 20.4667 145.456 21.7334 145.456 23.2C145.456 24.6756 145.203 25.9467 144.696 27.0134C144.199 28.0711 143.479 28.8889 142.536 29.4667C141.603 30.0356 140.488 30.32 139.19 30.32ZM139.19 26.4534C139.928 26.4534 140.492 26.1734 140.883 25.6134C141.283 25.0445 141.483 24.24 141.483 23.2C141.483 22.16 141.279 21.3556 140.87 20.7867C140.47 20.2089 139.91 19.92 139.19 19.92C138.47 19.92 137.901 20.2134 137.483 20.8C137.074 21.3867 136.87 22.1867 136.87 23.2C136.87 24.2134 137.074 25.0089 137.483 25.5867C137.901 26.1645 138.47 26.4534 139.19 26.4534Z" fill="white"/>
<path d="M153.996 30.32C152.227 30.32 150.849 29.6978 149.863 28.4534C148.885 27.2 148.396 25.44 148.396 23.1734C148.396 21.7778 148.636 20.5467 149.116 19.48C149.596 18.4045 150.258 17.5645 151.103 16.96C151.956 16.3556 152.938 16.0534 154.049 16.0534C155.187 16.0534 156.076 16.5067 156.716 17.4134V12.5334L160.716 10.7467V30H156.716V28.8534C156.227 29.8312 155.32 30.32 153.996 30.32ZM154.689 26.4534C155.214 26.4534 155.627 26.3956 155.929 26.28C156.231 26.1556 156.494 25.9556 156.716 25.68V20.7734C156.494 20.5067 156.2 20.2978 155.836 20.1467C155.471 19.9956 155.089 19.92 154.689 19.92C153.96 19.92 153.396 20.2 152.996 20.76C152.596 21.3111 152.396 22.1156 152.396 23.1734C152.396 23.9111 152.48 24.5245 152.649 25.0134C152.818 25.4934 153.071 25.8534 153.409 26.0934C153.747 26.3334 154.174 26.4534 154.689 26.4534Z" fill="white"/>
<path d="M166.765 35.1734L168.819 29.84L163.672 16.3734H167.832L170.525 23.4667C170.596 23.6267 170.672 23.8267 170.752 24.0667C170.832 24.3067 170.899 24.5334 170.952 24.7467C171.005 24.5334 171.072 24.3111 171.152 24.08C171.241 23.84 171.316 23.6356 171.379 23.4667L174.045 16.3734H178.179L170.925 35.1734H166.765Z" fill="white"/>
<path d="M10.8571 13.5714H0L6.33333 22.619H19V7.23809L10.8571 0V13.5714Z" fill="url(#paint0_linear_32_1075)"/>
<path d="M31.5475 26.4762L31.5475 37.3334L22.4998 31L22.4998 18.3334L37.8808 18.3334L45.1189 26.4762L31.5475 26.4762Z" fill="url(#paint1_linear_32_1075)"/>
<defs>
<linearGradient id="paint0_linear_32_1075" x1="9.5" y1="0" x2="9.5" y2="22.619" gradientUnits="userSpaceOnUse">
<stop stop-color="#BC1AF4"/>
<stop offset="1" stop-color="#5FA6FB"/>
</linearGradient>
<linearGradient id="paint1_linear_32_1075" x1="45.1189" y1="27.8334" x2="22.4998" y2="27.8334" gradientUnits="userSpaceOnUse">
<stop stop-color="#BC1AF4"/>
<stop offset="1" stop-color="#5FA6FB"/>
</linearGradient>
</defs>
</svg>
